<svg width="101" height="74" viewBox="0 0 101 74" fill="none" xmlns="http://www.w3.org/2000/svg">
<path d="M98.8232 28.2793C100.733 24.6893 99.993 22.2093 99.033 20.7595L99.023 20.7495C98.5628 20.0595 97.9431 19.4196 97.1728 18.8696C95.6528 17.7796 91.0727 14.5198 52.6835 15.1396L58.1334 6.52977L60.3534 7.93987C60.6034 8.09992 60.8834 8.16975 61.1534 8.16975C61.6532 8.16975 62.1334 7.91981 62.4234 7.46972C62.8635 6.76969 62.6533 5.8398 61.9633 5.39971L58.4832 3.18974H58.4731H58.4631L54.983 0.989748C54.283 0.549677 53.3531 0.74984 52.913 1.44987C52.4729 2.14989 52.6831 3.07978 53.3731 3.51987L55.5932 4.92997L49.0939 15.2094C40.2338 15.3992 31.9138 15.7394 26.4038 16.0093L19.3938 4.93974L21.6138 3.52964C22.3139 3.08957 22.5237 2.15969 22.074 1.45964C21.6339 0.759611 20.704 0.549778 20.0039 0.99952L16.5238 3.19951H16.5138L16.5038 3.20953L13.0237 5.40952C12.3237 5.84959 12.1138 6.77947 12.5636 7.47953C12.8536 7.92963 13.3334 8.17955 13.8336 8.17955C14.1036 8.17955 14.3836 8.0997 14.6335 7.94967L16.8536 6.53957L22.9537 16.1792C19.0436 16.3793 16.4937 16.539 16.1138 16.5591H16.0637C15.7637 16.5791 15.4636 16.6891 15.2237 16.8792L0.583683 28.4585C0.563631 28.4685 0.563631 28.4886 0.543579 28.4986C0.493449 28.5387 0.443682 28.5784 0.39355 28.6286C0.363472 28.6687 0.333393 28.7084 0.303673 28.7485C0.283621 28.7786 0.263569 28.8087 0.243518 28.8284C0.173694 28.9383 0.113535 29.0582 0.073431 29.1882C0.0634055 29.2083 0.0634058 29.2283 0.0634058 29.2484C0.0333274 29.3583 0.0233016 29.4783 0.0132751 29.5885V29.6985V29.7883C1.64319 44.2679 9.93338 44.0278 10.213 44.0278C10.213 44.0278 19.323 44.0879 30.7526 44.1377L25.1828 52.9376C23.8429 52.9276 22.2029 53.7275 20.2829 55.3574C18.243 57.0773 16.1229 59.5376 14.6029 61.9373C13.0829 64.3375 12.313 66.4573 12.313 68.2373C12.313 70.0473 13.123 71.5573 14.5829 72.4872C15.3828 72.9971 16.2529 73.247 17.1427 73.247C17.8829 73.247 18.6427 73.0669 19.3829 72.7171C21.0028 71.9572 22.5829 70.347 24.103 67.9572C26.1027 64.7972 29.2627 57.7969 27.713 54.5373L34.2829 44.157L40.6631 44.1771L47.2229 54.5372C45.6728 57.787 48.8327 64.7974 50.833 67.9571C52.353 70.3573 53.9428 71.9571 55.5531 72.717C56.2932 73.0668 57.053 73.2469 57.7932 73.2469C58.6834 73.2469 59.5531 72.997 60.3531 72.4871C61.8129 71.5672 62.6132 70.0572 62.6229 68.2371C62.6229 66.4472 61.8531 64.327 60.3331 61.9372C58.8131 59.537 56.6929 57.0872 54.653 55.3573C52.733 53.7274 51.093 52.9375 49.7532 52.9375L44.213 44.1777C47.4929 44.1878 50.533 44.1878 53.313 44.1878C64.3029 44.1878 71.3327 44.1276 74.2532 44.0177C81.913 43.7276 94.9028 35.4078 98.7235 28.3473C98.7335 28.3273 98.7536 28.3072 98.7636 28.2872C98.8134 28.2976 98.8134 28.2875 98.8234 28.2775L98.8232 28.2793ZM95.4333 21.3095C95.3732 21.3396 95.3134 21.3697 95.2532 21.3994C95.2031 21.4194 95.1634 21.4395 95.1133 21.4595C94.9933 21.5097 94.8633 21.5695 94.7233 21.6196C94.6932 21.6296 94.6632 21.6497 94.6334 21.6597C94.4633 21.7295 94.2836 21.7897 94.0935 21.8599C94.0433 21.8799 93.9835 21.9 93.9234 21.92C93.7834 21.9701 93.6333 22.0199 93.4833 22.07C93.4034 22.1001 93.3132 22.1202 93.2334 22.1499C93.0934 22.19 92.9533 22.2398 92.8033 22.2799C92.7034 22.3099 92.6032 22.34 92.5033 22.3697C92.3532 22.4099 92.1932 22.4596 92.0331 22.4997C91.9232 22.5298 91.8233 22.5599 91.713 22.5896C91.5329 22.6397 91.3331 22.6895 91.143 22.7396C91.0431 22.7597 90.9528 22.7898 90.8529 22.8095C90.5528 22.8793 90.2528 22.9495 89.923 23.0193C89.8231 23.0393 89.7228 23.0594 89.6229 23.0794C89.383 23.1296 89.1427 23.1793 88.8928 23.2395C88.7428 23.2696 88.5927 23.2997 88.4327 23.3294C88.2128 23.3695 87.9926 23.4193 87.7627 23.4594C87.5926 23.4894 87.4226 23.5195 87.2528 23.5593C87.0129 23.5994 86.7727 23.6491 86.5327 23.6892C86.3526 23.7193 86.1729 23.7494 85.9928 23.7791C85.7328 23.8293 85.4528 23.869 85.1728 23.9191C84.9927 23.9492 84.8129 23.9793 84.6328 24.009C84.2128 24.0788 83.7828 24.139 83.3326 24.2092C83.1826 24.2292 83.0225 24.2493 82.8725 24.279C82.4725 24.3391 82.0726 24.3889 81.6525 24.4491C81.4327 24.4791 81.2125 24.5092 80.9826 24.5389C80.6524 24.5791 80.3126 24.6288 79.9724 24.6689C79.7225 24.699 79.4725 24.7291 79.2223 24.7588C78.8821 24.7989 78.5222 24.8387 78.1724 24.8888C77.9024 24.9189 77.6425 24.9489 77.3624 24.9787C76.9825 25.0188 76.5926 25.0685 76.2023 25.1086C75.9323 25.1387 75.6724 25.1688 75.4024 25.1985C74.9025 25.2487 74.3822 25.3084 73.8523 25.3586C73.6722 25.3786 73.5025 25.3987 73.3324 25.4087C72.6324 25.4785 71.9223 25.5387 71.1826 25.6089C70.9126 25.6289 70.6225 25.659 70.3525 25.6787C69.8527 25.7188 69.3525 25.7686 68.8325 25.8087C68.5124 25.8388 68.1826 25.8588 67.8625 25.8885C67.3627 25.9286 66.8524 25.9684 66.3325 26.0085C65.9924 26.0386 65.6425 26.0586 65.2927 26.0883C64.7527 26.1284 64.1927 26.1682 63.6327 26.2083C63.2925 26.2283 62.9627 26.2584 62.6225 26.2781C61.9325 26.3282 61.2225 26.368 60.5024 26.4181C60.2725 26.4382 60.0523 26.4482 59.8124 26.4682C58.8524 26.5284 57.8624 26.5882 56.8526 26.6483C56.6127 26.6584 56.3627 26.6784 56.1225 26.6885C55.3426 26.7286 54.5423 26.7783 53.7324 26.8184C53.3625 26.8385 52.9922 26.8585 52.6224 26.8786C51.9023 26.9187 51.1822 26.9484 50.4425 26.9885C50.0325 27.0086 49.6125 27.0286 49.1924 27.0487C48.4423 27.0888 47.6824 27.1185 46.9126 27.1486C46.5026 27.1686 46.1026 27.1887 45.6926 27.1987C45.4924 27.2087 45.2726 27.2188 45.0728 27.2288L50.4227 18.7786L50.8026 18.1785C84.863 17.5297 93.3938 19.8597 95.4333 21.3095ZM41.3934 27.3695C40.4835 27.3995 39.5834 27.4393 38.6936 27.4693C38.2334 27.4894 37.7636 27.4994 37.3035 27.5195C35.8236 27.5696 34.3437 27.6194 32.9036 27.6595C31.2836 27.7096 29.6537 27.7494 28.0037 27.7895C27.5139 27.7995 27.0237 27.8095 26.5339 27.8195C25.354 27.8496 24.1738 27.8697 22.9839 27.8994C22.4038 27.9094 21.8338 27.9194 21.2541 27.9295C20.0643 27.9495 18.864 27.9696 17.6641 27.9896C17.1642 27.9997 16.664 28.0097 16.1641 28.0097C15.9142 28.0097 15.6643 28.0197 15.414 28.0197L26.7237 18.9899C31.8538 18.7499 39.2233 18.4399 47.1735 18.2497L41.3934 27.3695ZM16.7334 19.5194C17.5032 19.4693 19.1933 19.3694 21.5834 19.2495L18.4837 21.7194L10.5137 28.0795C8.72378 28.0995 7.15363 28.1096 5.85381 28.1196L16.7334 19.5194ZM10.1736 41.0399C10.1635 41.0399 10.1635 41.0399 10.1736 41.0399C10.1134 41.0399 4.88343 41.1799 3.23344 31.14H10.9735C11.0835 31.14 11.2034 31.1199 11.3234 31.0798C11.3434 31.0798 11.3535 31.0798 11.3735 31.0698C12.1434 31.0597 12.9035 31.0497 13.6734 31.0397C14.7233 31.0297 15.7735 31.0196 16.8133 30.9996C17.6734 30.9896 18.5235 30.9695 19.3832 30.9595C20.3532 30.9394 21.3332 30.9294 22.2932 30.9094C23.2533 30.8893 24.1932 30.8693 25.1431 30.8492C25.9932 30.8291 26.8533 30.8091 27.6929 30.789C29.4729 30.7489 31.2429 30.6992 32.9831 30.649C34.323 30.6089 35.6929 30.5692 37.0629 30.5191C37.4128 30.509 37.773 30.499 38.1228 30.479C38.5629 30.4689 38.9929 30.4489 39.4326 30.4388L32.6425 41.1592C20.5133 41.1101 10.4834 41.0399 10.1736 41.0399ZM21.5933 66.3599C20.0934 68.74 18.8734 69.6599 18.1233 70.0097C17.4032 70.3499 16.7934 70.3298 16.2034 69.9596C15.6133 69.5797 15.3333 69.0397 15.3333 68.2494C15.3333 67.4194 15.6433 65.9295 17.1533 63.5494C19.9931 59.0696 23.9033 56.0095 25.0831 55.9393C25.5232 57.0397 24.4332 61.8797 21.5933 66.3599ZM57.8427 63.5498C59.3426 65.9299 59.6628 67.4198 59.6628 68.2498C59.6628 69.0397 59.3827 69.5897 58.7926 69.9599C58.2025 70.3398 57.5827 70.3499 56.8727 70.01C56.1225 69.6602 54.9126 68.7299 53.4027 66.3603C50.5628 61.8805 49.4728 57.0406 49.9126 55.9406C51.0928 56.01 55.0028 59.07 57.8427 63.5498ZM74.1822 41.0403C70.3623 41.1903 59.3827 41.2404 41.5326 41.1903L36.2127 41.1702L39.5027 35.9804L43.1027 30.3003C43.2227 30.3003 43.3326 30.2903 43.4525 30.2903C44.4827 30.2502 45.4925 30.2104 46.4826 30.1603C46.5724 30.1603 46.6527 30.1503 46.7425 30.1503C47.7824 30.1001 48.8025 30.0604 49.7925 30.0103C50.0024 30.0002 50.2025 29.9902 50.4124 29.9802C51.4124 29.93 52.3925 29.8803 53.3524 29.8301H53.4026C54.3425 29.78 55.2624 29.7302 56.1626 29.6801C56.3427 29.6701 56.5224 29.6601 56.7025 29.65C57.5927 29.5999 58.4725 29.5501 59.3325 29.49C59.4525 29.48 59.5724 29.4699 59.6824 29.4699C60.4622 29.4198 61.2224 29.37 61.9722 29.3199C62.1122 29.3099 62.2622 29.2998 62.4022 29.2898C63.2122 29.2397 63.9921 29.1799 64.7622 29.1197C64.9123 29.1097 65.0523 29.0997 65.2023 29.0897C65.9224 29.0395 66.6224 28.9797 67.3125 28.9296C67.3823 28.9196 67.4525 28.9196 67.5223 28.9095C68.2524 28.8494 68.9625 28.7896 69.6622 28.7294C69.8122 28.7194 69.9622 28.6994 70.1123 28.6893C70.8123 28.6292 71.4923 28.5694 72.1522 28.5092H72.1622C72.8221 28.4491 73.4523 28.3893 74.0722 28.3291C74.2122 28.3191 74.3422 28.299 74.4822 28.289C75.0923 28.2289 75.6921 28.1691 76.2721 28.1089C76.352 28.0989 76.4222 28.0889 76.502 28.0788C77.032 28.0187 77.5419 27.9689 78.0521 27.9088C78.152 27.8987 78.2523 27.8887 78.3522 27.8787C78.8921 27.8185 79.4221 27.7487 79.9323 27.6885C80.0322 27.6785 80.1325 27.6585 80.2324 27.6484C80.6925 27.5883 81.1522 27.5285 81.5923 27.4683C81.6525 27.4583 81.7223 27.4483 81.7824 27.4483C82.2626 27.3881 82.7224 27.3183 83.1725 27.2581C83.2724 27.2481 83.3726 27.2281 83.4725 27.218C84.3724 27.0881 85.2224 26.9581 86.0223 26.8281C86.1022 26.8181 86.1824 26.798 86.2723 26.788C86.6622 26.7278 87.0421 26.658 87.4023 26.5979C87.4524 26.5878 87.4922 26.5778 87.5423 26.5678C87.8725 26.5076 88.2022 26.4478 88.5123 26.3877C88.5725 26.3777 88.6323 26.3676 88.6924 26.3576C89.0326 26.2974 89.3524 26.2276 89.6625 26.1675C89.7126 26.1574 89.7724 26.1474 89.8225 26.1374C90.1125 26.0772 90.3926 26.0174 90.6625 25.9573C90.6926 25.9473 90.7324 25.9473 90.7624 25.9372C91.0525 25.8771 91.3225 25.8072 91.5924 25.7471C91.6426 25.7371 91.7024 25.717 91.7525 25.707C92.2824 25.577 92.7727 25.447 93.2224 25.3271C93.2725 25.3171 93.3123 25.297 93.3624 25.287C93.5822 25.2268 93.7924 25.167 93.9922 25.0968C94.0123 25.0868 94.0323 25.0868 94.0524 25.0768C94.2425 25.0166 94.4223 24.9568 94.6024 24.9067C94.6325 24.8967 94.6625 24.8867 94.6923 24.8766C94.8724 24.8165 95.0521 24.7567 95.2122 24.6965C95.2322 24.6865 95.2623 24.6765 95.282 24.6664C95.4421 24.6063 95.5821 24.5565 95.7321 24.4964C95.7421 24.4863 95.7622 24.4863 95.7722 24.4763C95.9222 24.4162 96.0622 24.3564 96.2022 24.3062L96.2624 24.2761C96.5324 24.1562 96.7723 24.0463 96.9925 23.936C97.0025 23.936 97.0126 23.926 97.0226 23.926C97.0527 24.6661 96.8325 25.5158 96.3927 26.446C82.0626 33.036 51.183 33.2658 47.223 33.2658H46.793C45.973 33.2658 45.303 33.9257 45.293 34.7558C45.2831 35.5858 45.953 36.2658 46.783 36.2658H47.5528C52.3828 36.2658 77.3929 36.0058 93.0422 30.9459C87.8519 36.1602 79.0222 40.8606 74.1822 41.0403Z" fill="white"/>
<path d="M26.8506 33.2493L10.5707 34.1194C9.74067 34.1595 9.11081 34.8696 9.15059 35.6996C9.19069 36.4995 9.86064 37.1196 10.6505 37.1196H10.7304L27.0112 36.2495C27.8412 36.2094 28.4711 35.4994 28.4313 34.6694C28.3812 33.8394 27.6711 33.1995 26.8511 33.2493H26.8506Z" fill="white"/>
<path d="M73.7392 42.8724C55.751 42.7663 18.0871 42.6176 11.3375 42.8724C7.09908 43.0324 2.94809 34.7266 1.4678 31.0481L45.7521 28.8638C51.9923 30.6467 84.6961 25.8251 98.6516 23.0127C95.1361 35.9233 79.7353 41.4397 73.7392 42.8724Z" fill="white"/>
</svg>
