<svg width="81" height="92" viewBox="0 0 81 92" fill="none" xmlns="http://www.w3.org/2000/svg">
<g filter="url(#filter0_d_90_396)">
<path d="M43.7342 13.7649C43.482 13.9387 43.3082 14.1997 43.2473 14.504C43.1256 15.1302 43.5428 15.7303 44.1605 15.852C44.4648 15.9129 44.7692 15.8433 45.0214 15.6695C45.2736 15.4957 45.4474 15.2347 45.5083 14.9304C45.5691 14.6261 45.4995 14.3218 45.3257 14.0695C45.1519 13.8173 44.8909 13.6435 44.5866 13.5826C44.2908 13.5303 43.9864 13.5911 43.7342 13.7649Z" fill="white"/>
<path d="M45.9343 10.7561C45.369 11.156 45.0126 11.8691 44.7777 12.5734H44.7864C45.3605 12.6864 45.8562 13.0082 46.1777 13.4866C46.3515 13.7389 46.4648 14.0259 46.5169 14.3126C47.5518 13.8518 48.7778 13.1647 48.6649 12.5646C48.465 11.5388 47.3605 9.74745 45.9343 10.7561Z" fill="white"/>
<path d="M40.5079 12.6954C40.8906 13.1998 41.6471 13.6519 42.3253 13.991C42.4818 13.5562 42.7601 13.1735 43.1513 12.9128C43.56 12.6345 44.0469 12.5128 44.5338 12.5476C44.5599 11.4866 44.4033 9.86064 43.1425 9.82578C41.2643 9.77341 39.7164 11.6519 40.5079 12.6954Z" fill="white"/>
<path d="M45.9865 16.174C46.8301 17.0524 48.3343 18.3568 49.0998 17.4003C50.1868 16.035 49.7868 15.3132 49.1867 14.7478C48.8215 14.4087 47.5171 14.3651 46.5342 14.3827C46.569 14.6261 46.5778 14.8696 46.5254 15.113C46.4388 15.5305 46.2475 15.887 45.9865 16.174Z" fill="white"/>
<path d="M46.6387 17.9915C46.5082 17.2957 46.1691 16.6959 45.8735 16.2783C45.4735 16.6523 44.943 16.8869 44.3777 16.8869C44.2472 16.8869 44.1082 16.8782 43.9689 16.8521C43.8472 16.8261 43.7255 16.7913 43.6123 16.7477C43.3252 17.4955 43.047 18.5129 43.4036 19.0347C43.995 19.9049 46.8821 19.296 46.6387 17.9915Z" fill="white"/>
<path d="M39.7687 14.7391C39.2819 15.5391 39.647 17.9829 41.0992 18.0611C41.9688 18.1047 42.8472 17.3044 43.4037 16.6437C42.5862 16.2261 42.0993 15.3305 42.2386 14.3827C41.2294 14.2956 40.0383 14.2956 39.7687 14.7391Z" fill="white"/>
<path d="M33.7945 15.27C33.2552 15.27 32.7684 15.6527 32.6639 16.2005C32.603 16.5048 32.6726 16.8091 32.8464 17.0614C33.0202 17.3136 33.2812 17.4874 33.5855 17.5483C33.8898 17.6091 34.1942 17.5395 34.4464 17.3657C34.6986 17.1919 34.8724 16.9309 34.9333 16.6266C35.055 16.0004 34.6378 15.4003 34.02 15.2785C33.9334 15.2788 33.8641 15.27 33.7944 15.27L33.7945 15.27Z" fill="white"/>
<path d="M35.3511 12.4694C34.7858 12.8694 34.4294 13.5824 34.1945 14.2867H34.2032C35.1076 14.4605 35.7687 15.1736 35.9337 16.026C36.9686 15.5651 38.1946 14.8781 38.0817 14.278C37.8731 13.2433 36.7773 11.452 35.3511 12.4694Z" fill="white"/>
<path d="M31.7509 15.7041C32.0728 14.7824 32.9772 14.191 33.951 14.2604C33.977 13.1994 33.8205 11.5734 32.5596 11.5385C30.6899 11.4777 29.1421 13.3647 29.9336 14.4084C30.3072 14.9041 31.0639 15.3649 31.7509 15.7041Z" fill="white"/>
<path d="M32.8118 20.7394C33.4032 21.609 36.2991 21.0089 36.0469 19.7044C35.9164 19.0086 35.5772 18.4088 35.2902 18C35.2033 18.0781 35.1164 18.1565 35.0207 18.2262C34.6556 18.4784 34.2292 18.6001 33.8032 18.6001C33.6639 18.6001 33.5249 18.5829 33.3944 18.5565C33.2727 18.5305 33.151 18.4957 33.0293 18.4521C32.7422 19.1999 32.4639 20.2177 32.8118 20.7394Z" fill="white"/>
<path d="M30.5074 19.765C31.377 19.8086 32.2554 19.0084 32.8119 18.3476C32.4901 18.1823 32.2033 17.9476 31.9944 17.6346C31.6813 17.1737 31.5684 16.6257 31.6465 16.0867C30.6376 15.991 29.4464 15.991 29.1769 16.4346C28.6898 17.2431 29.0549 19.6869 30.5074 19.765Z" fill="white"/>
<path d="M35.4033 17.8786C36.2469 18.757 37.7599 20.0614 38.5166 19.1049C39.6036 17.7396 39.2036 17.0178 38.6035 16.4524C38.2383 16.1133 36.9339 16.0697 35.9425 16.0873C35.9774 16.3219 35.9861 16.5742 35.9338 16.8176C35.8556 17.2264 35.6728 17.5916 35.4033 17.8786Z" fill="white"/>
<path d="M35.3772 5.55612C35.6991 4.63441 36.6035 4.04307 37.5773 4.11242C37.6033 3.05142 37.4468 1.42545 36.1859 1.3906C34.3162 1.32974 32.7684 3.21672 33.5599 4.26047C33.9423 4.76463 34.699 5.21697 35.3772 5.55612Z" fill="white"/>
<path d="M36.299 6.06033C36.2381 6.36463 36.3078 6.66894 36.4816 6.92117C36.6554 7.1734 36.9164 7.34721 37.2207 7.40807C37.525 7.46893 37.8293 7.3993 38.0815 7.22549C38.3337 7.05168 38.5076 6.79068 38.5684 6.48639C38.6293 6.18208 38.5596 5.87777 38.3858 5.62554C38.212 5.37332 37.951 5.19951 37.6467 5.13864C37.5774 5.12109 37.4993 5.12109 37.4296 5.12109C36.8816 5.12987 36.4035 5.51228 36.299 6.06033Z" fill="white"/>
<path d="M39.2296 5.05139C39.4034 5.30361 39.5166 5.59065 39.5687 5.87737C40.6036 5.41652 41.8296 4.72948 41.7167 4.12938C41.5166 3.10323 40.4123 1.3119 38.9862 2.32051C38.4208 2.72049 38.0644 3.43354 37.8295 4.13786H37.8383C38.4033 4.25137 38.8993 4.57295 39.2296 5.05131L39.2296 5.05139Z" fill="white"/>
<path d="M34.1423 9.62586C35.012 9.66945 35.8903 8.86922 36.4469 8.20846C36.125 8.04315 35.8383 7.80847 35.6294 7.49539C35.3163 7.03454 35.2034 6.48649 35.2815 5.94755C34.2726 5.85187 33.0814 5.85187 32.8119 6.29545C32.3247 7.09514 32.6899 9.54745 34.1423 9.62586Z" fill="white"/>
<path d="M39.5687 5.94706C39.6036 6.19051 39.6123 6.43395 39.56 6.67739C39.4818 7.07737 39.299 7.43402 39.0295 7.72962C39.8731 8.608 41.3861 9.91243 42.1428 8.95592C43.2298 7.59063 42.8298 6.86878 42.2297 6.30345C41.8645 5.9731 40.5513 5.92979 39.5687 5.94706Z" fill="white"/>
<path d="M38.9252 7.85205C38.8383 7.93018 38.7514 8.0086 38.6557 8.07823C38.2906 8.33045 37.8642 8.45218 37.4382 8.45218C37.2989 8.45218 37.1599 8.43491 37.0294 8.40859C36.9077 8.38254 36.786 8.34772 36.6728 8.30413C36.3857 9.052 36.1074 10.0694 36.4641 10.5826C37.0555 11.4522 39.9514 10.8521 39.6992 9.54768C39.5514 8.86065 39.212 8.26077 38.9252 7.85205Z" fill="white"/>
<path d="M47.8475 5.0955C47.7866 5.3998 47.8562 5.70411 48.0301 5.95634C48.2039 6.20857 48.4649 6.38238 48.7692 6.44324C49.0735 6.5041 49.3778 6.43447 49.63 6.26066C49.8822 6.08685 50.056 5.82585 50.1169 5.52156C50.1778 5.21725 50.1081 4.91294 49.9343 4.66071C49.7605 4.40849 49.4995 4.23468 49.1952 4.17381C49.1174 4.16504 49.0477 4.16504 48.9781 4.16504C48.4388 4.16504 47.952 4.54744 47.8475 5.0955Z" fill="white"/>
<path d="M50.7781 4.08654C50.9519 4.33877 51.0651 4.6258 51.1172 4.91253C52.1521 4.45168 53.3781 3.76464 53.2652 3.16453C53.0651 2.13839 51.9608 0.347054 50.5346 1.35566C49.9693 1.75565 49.6129 2.4687 49.378 3.17301H49.3867C49.9605 3.27775 50.4477 3.60838 50.7781 4.08647L50.7781 4.08654Z" fill="white"/>
<path d="M46.9344 4.59079C47.2562 3.66907 48.1607 3.07773 49.1344 3.14709C49.1605 2.08608 49.0039 0.460122 47.7431 0.425265C45.8734 0.364404 44.3255 2.25138 45.117 3.29514C45.4907 3.7993 46.2474 4.25164 46.9344 4.59079Z" fill="white"/>
<path d="M45.6908 8.66053C46.5604 8.70412 47.4388 7.90389 47.9954 7.24313C47.6735 7.07781 47.3868 6.84314 47.1779 6.53006C46.8648 6.06921 46.7518 5.52116 46.83 4.98222C45.8211 4.88654 44.6299 4.88654 44.3604 5.33012C43.8732 6.1298 44.2387 8.58212 45.6908 8.66053Z" fill="white"/>
<path d="M51.1259 4.98172C51.1607 5.22517 51.1695 5.46862 51.1171 5.71206C51.039 6.11204 50.8561 6.46869 50.5867 6.76429C51.4303 7.64267 52.9433 8.94709 53.7 7.99059C54.787 6.6253 54.387 5.90344 53.7869 5.33812C53.4129 5.00777 52.1085 4.96446 51.1259 4.98172Z" fill="white"/>
<path d="M51.239 8.59116C51.1085 7.89536 50.7693 7.29551 50.4823 6.88672C50.3954 6.96485 50.3085 7.04326 50.2128 7.1129C49.8477 7.36512 49.4213 7.48685 48.9953 7.48685C48.856 7.48685 48.717 7.46958 48.5865 7.44325C48.4648 7.41721 48.3431 7.38239 48.2299 7.3388C47.9428 8.08667 47.6646 9.10404 48.0212 9.61726C48.5953 10.4956 51.4825 9.89557 51.239 8.59116Z" fill="white"/>
<path d="M54.4739 12.678C54.2217 12.8518 54.0479 13.1128 53.987 13.4171C53.8653 14.0433 54.2826 14.6434 54.9003 14.7651C55.2046 14.826 55.5089 14.7564 55.7611 14.5826C56.0133 14.4087 56.1872 14.1477 56.248 13.8435C56.3089 13.5391 56.2392 13.2348 56.0654 12.9826C55.8916 12.7304 55.6306 12.5566 55.3263 12.4957C55.0305 12.4433 54.7262 12.5042 54.4739 12.678Z" fill="white"/>
<path d="M56.9175 12.4088C57.0914 12.661 57.2046 12.9481 57.2567 13.2348C58.2916 12.7739 59.5176 12.0869 59.4047 11.4868C59.2046 10.4607 58.1003 8.66932 56.6741 9.67793C56.1088 10.0779 55.7524 10.791 55.5174 11.4953H55.5262C56.1003 11.6 56.596 11.9219 56.9175 12.4087L56.9175 12.4088Z" fill="white"/>
<path d="M51.2564 11.6085C51.6391 12.1129 52.3955 12.565 53.0737 12.9041C53.2303 12.4693 53.5085 12.0866 53.8997 11.8259C54.3085 11.5476 54.7953 11.4259 55.2822 11.4607C55.3083 10.3997 55.1517 8.77372 53.8909 8.73886C52.0042 8.68649 50.4561 10.5735 51.2564 11.6085Z" fill="white"/>
<path d="M50.5085 13.6522C50.0216 14.4522 50.3868 16.896 51.8389 16.9741C52.7085 17.0177 53.5869 16.2175 54.1435 15.5567C53.326 15.1392 52.8391 14.2436 52.9783 13.2958C51.9694 13.2086 50.778 13.2086 50.5085 13.6522Z" fill="white"/>
<path d="M57.3784 16.9134C57.2479 16.2176 56.9088 15.6178 56.6218 15.209C56.5349 15.2871 56.448 15.3655 56.3523 15.4352C55.9871 15.6874 55.5608 15.8091 55.1348 15.8091C54.9955 15.8091 54.8565 15.7918 54.726 15.7655C54.6043 15.7395 54.4826 15.7047 54.3693 15.6611C54.0823 16.4089 53.804 17.4263 54.1607 17.9481C54.7348 18.818 57.6219 18.2091 57.3784 16.9134Z" fill="white"/>
<path d="M57.2654 13.3041C57.3002 13.5476 57.309 13.791 57.2566 14.0344C57.1785 14.4344 56.9956 14.7911 56.7261 15.0867C57.5697 15.9651 59.0828 17.2695 59.8394 16.313C60.9264 14.9477 60.5265 14.2258 59.9263 13.6605C59.5527 13.3217 58.2483 13.2781 57.2654 13.3041Z" fill="white"/>
<path d="M49.3258 23.0268C49.6477 22.1051 50.5521 21.5138 51.5259 21.5831C51.5519 20.5221 51.3954 18.8962 50.1346 18.8613C48.2648 18.8004 46.717 20.6874 47.5085 21.7312C47.8821 22.2356 48.6388 22.6877 49.3258 23.0268Z" fill="white"/>
<path d="M53.5087 23.3574C54.5436 22.8965 55.7696 22.2095 55.6567 21.6094C55.4566 20.5832 54.3523 18.7919 52.9261 19.8005C52.3608 20.2005 52.0044 20.9135 51.7694 21.6178H51.7782C52.6826 21.7831 53.3434 22.4962 53.5087 23.3574Z" fill="white"/>
<path d="M51.152 24.8787C51.7782 25.0004 52.3783 24.5831 52.5001 23.9654C52.6218 23.3392 52.2045 22.7391 51.5868 22.6174C51.5172 22.6001 51.439 22.6001 51.3694 22.6001C50.8302 22.6001 50.3433 22.9828 50.2388 23.5394C50.1779 23.8437 50.2475 24.148 50.4214 24.4002C50.5954 24.6524 50.8565 24.8263 51.152 24.8787Z" fill="white"/>
<path d="M56.0914 26.4443C57.1784 25.079 56.7785 24.3571 56.1783 23.7918C55.8132 23.4527 54.5087 23.4091 53.5174 23.4266C53.5522 23.6613 53.561 23.9135 53.5086 24.1569C53.4305 24.5657 53.2391 24.9221 52.9781 25.2092C53.8305 26.0878 55.3348 27.3923 56.0914 26.4443Z" fill="white"/>
<path d="M48.0823 27.0966C48.9519 27.1402 49.8303 26.3399 50.3868 25.6792C50.065 25.5138 49.7782 25.2792 49.5693 24.9661C49.2562 24.5052 49.1433 23.9572 49.2214 23.4183C48.2125 23.3226 47.0214 23.3226 46.7519 23.7662C46.2647 24.5746 46.6301 27.0184 48.0823 27.0966Z" fill="white"/>
<path d="M53.6304 27.0272C53.4999 26.3314 53.1608 25.7315 52.8652 25.314C52.4652 25.6879 51.9347 25.9226 51.3694 25.9226C51.2389 25.9226 51.0999 25.9138 50.9607 25.8878C50.8389 25.8617 50.7172 25.8269 50.5955 25.7833C50.3084 26.5312 50.0302 27.5486 50.3869 28.0618C50.9867 28.9404 53.8738 28.3316 53.6304 27.0272Z" fill="white"/>
<path d="M39.9166 25.7741C40.534 25.8959 41.1429 25.4871 41.2646 24.8609C41.3864 24.2347 40.9691 23.6346 40.3514 23.5128C40.0471 23.452 39.7428 23.5216 39.4905 23.6954C39.2383 23.8692 39.0645 24.1302 39.0036 24.4345C38.8816 25.0434 39.2904 25.6523 39.9166 25.774L39.9166 25.7741Z" fill="white"/>
<path d="M42.2645 24.2441C43.2995 23.7832 44.5255 23.0962 44.4126 22.4961C44.2124 21.4699 43.1081 19.6786 41.682 20.6872C41.1167 21.0872 40.7603 21.8002 40.5253 22.5046H40.5341C41.4385 22.6702 42.0992 23.392 42.2645 24.2441Z" fill="white"/>
<path d="M36.2555 22.6264C36.6382 23.1308 37.3946 23.5829 38.0729 23.9221C38.2294 23.4872 38.5077 23.1045 38.8988 22.8438C39.3076 22.5655 39.7945 22.4438 40.2814 22.4786C40.3074 21.4176 40.1509 19.7917 38.8901 19.7568C37.0119 19.6959 35.464 21.5829 36.2555 22.6264Z" fill="white"/>
<path d="M44.8473 27.3315C45.9343 25.9662 45.5343 25.2443 44.9342 24.679C44.569 24.3399 43.2646 24.2963 42.2733 24.3138C42.3081 24.5485 42.3169 24.8007 42.2645 25.0442C42.1864 25.4529 41.995 25.8093 41.734 26.0964C42.5864 26.9835 44.0907 28.2792 44.8473 27.3315Z" fill="white"/>
<path d="M42.3863 27.9227C42.2558 27.2269 41.9167 26.627 41.6211 26.2095C41.2211 26.5834 40.6906 26.8181 40.1253 26.8181C39.9948 26.8181 39.8558 26.8093 39.7165 26.7833C39.5948 26.7572 39.4731 26.7224 39.3599 26.6788C39.0728 27.4267 38.7945 28.4441 39.1512 28.9658C39.7426 29.827 42.6297 29.2271 42.3863 27.9227Z" fill="white"/>
<path d="M39.1426 26.5747C38.3251 26.1571 37.8382 25.2615 37.9775 24.3138C36.9686 24.2181 35.7774 24.2181 35.5079 24.6617C35.021 25.4616 35.3862 27.9055 36.8384 27.9836C37.7165 28.0357 38.5861 27.2269 39.1426 26.5747Z" fill="white"/>
<path d="M20.0546 36.6967C20.6808 36.8184 21.2809 36.4012 21.4026 35.7834C21.4635 35.4791 21.3939 35.1748 21.2201 34.9226C21.0462 34.6704 20.7852 34.4966 20.4809 34.4357C20.1766 34.3748 19.8723 34.4445 19.6201 34.6183C19.3679 34.7921 19.1941 35.0531 19.1332 35.3574C19.02 35.9748 19.4372 36.5749 20.0546 36.6966L20.0546 36.6967Z" fill="white"/>
<path d="M16.4022 33.5488C16.7849 34.0532 17.5413 34.5053 18.2196 34.8444C18.3761 34.4096 18.6544 34.0269 19.0455 33.7662C19.4543 33.4879 19.9412 33.3662 20.4281 33.401C20.4541 32.34 20.2976 30.714 19.0368 30.6792C17.1588 30.6183 15.6107 32.5053 16.4022 33.5488Z" fill="white"/>
<path d="M22.0721 34.3404C22.2459 34.5927 22.3591 34.8797 22.4112 35.1664C23.4461 34.7056 24.6721 34.0185 24.5592 33.4184C24.3591 32.3923 23.2548 30.601 21.8287 31.6096C21.2633 32.0096 20.9069 32.7226 20.672 33.4269H20.6808C21.2549 33.5317 21.7418 33.862 22.0721 34.3404L22.0721 34.3404Z" fill="white"/>
<path d="M18.124 35.2361C17.1151 35.1404 15.924 35.1404 15.6545 35.584C15.1676 36.384 15.5328 38.8278 16.9849 38.906C17.8545 38.9495 18.7329 38.1493 19.2895 37.4886C18.472 37.0798 17.985 36.1841 18.124 35.2361Z" fill="white"/>
<path d="M24.994 38.2533C26.081 36.888 25.681 36.1662 25.0809 35.6009C24.7157 35.2617 23.4113 35.2181 22.4284 35.2357C22.4632 35.4791 22.472 35.7226 22.4197 35.966C22.3415 36.3748 22.1502 36.7312 21.8892 37.0183C22.7242 37.9054 24.2288 39.2011 24.994 38.2533Z" fill="white"/>
<path d="M22.533 38.8446C22.4025 38.1488 22.0634 37.5489 21.7678 37.1313C21.3678 37.5053 20.8373 37.74 20.272 37.74C20.1415 37.74 20.0025 37.7312 19.8632 37.7051C19.7415 37.6791 19.6198 37.6443 19.5066 37.6007C19.2195 38.3486 18.9412 39.3659 19.2979 39.8877C19.8896 40.7491 22.7767 40.149 22.533 38.8446Z" fill="white"/>
<path d="M9.68008 36.1231C9.4539 36.1231 9.228 36.1927 9.03665 36.3232C8.78442 36.497 8.61062 36.758 8.54975 37.0623C8.48888 37.3666 8.55852 37.6709 8.73233 37.9231C8.90614 38.1754 9.16714 38.3492 9.47143 38.41C9.77574 38.4709 10.08 38.4013 10.3323 38.2275C10.5845 38.0537 10.7583 37.7927 10.8192 37.4884C10.9409 36.8622 10.5236 36.2621 9.90593 36.1403C9.82809 36.1315 9.75849 36.1231 9.68008 36.1231Z" fill="white"/>
<path d="M7.63649 36.549C7.79303 36.1142 8.0713 35.7315 8.46248 35.4708C8.87124 35.1925 9.34934 35.0708 9.84502 35.1056C9.87106 34.0446 9.71452 32.4186 8.45371 32.3838C6.58397 32.3229 5.03612 34.2099 5.82762 35.2536C6.20157 35.7575 6.95826 36.2099 7.63649 36.549Z" fill="white"/>
<path d="M11.8193 36.8798C12.8542 36.419 14.0803 35.7319 13.9674 35.1318C13.7672 34.1057 12.6629 32.3143 11.2368 33.3229C10.6715 33.7229 10.315 34.436 10.0801 35.1403H10.0889C11.0021 35.3059 11.6628 36.019 11.8193 36.8798Z" fill="white"/>
<path d="M11.9411 40.5492C11.8106 39.8534 11.4715 39.2535 11.1844 38.8447C11.0975 38.9229 11.0106 39.0013 10.9149 39.0709C10.5498 39.3231 10.1235 39.4449 9.69742 39.4449C9.55814 39.4449 9.41916 39.4276 9.28866 39.4013C9.16693 39.3752 9.04521 39.3404 8.92348 39.2968C8.63644 40.0447 8.35817 41.0621 8.71485 41.5753C9.30592 42.4621 12.193 41.8536 11.9411 40.5492Z" fill="white"/>
<path d="M7.88868 38.4969C7.57559 38.036 7.46265 37.488 7.54077 36.949C6.53188 36.8533 5.34072 36.8533 5.07121 37.2969C4.58432 38.0969 4.94949 40.5407 6.40165 40.6188C7.27127 40.6624 8.14965 39.8622 8.7062 39.2014C8.38434 39.0449 8.09729 38.8012 7.88868 38.4969Z" fill="white"/>
<path d="M14.4021 39.9662C15.4891 38.6009 15.0891 37.8791 14.489 37.3138C14.1238 36.9746 12.8194 36.931 11.828 36.9486C11.8629 37.1833 11.8716 37.4355 11.8193 37.6789C11.7411 38.0789 11.5583 38.4356 11.2888 38.7312C12.1412 39.6095 13.6457 40.914 14.4021 39.9662Z" fill="white"/>
<path d="M12.6716 26.1747C12.4193 26.3485 12.2455 26.6095 12.1847 26.9138C12.0629 27.54 12.4802 28.1401 13.0979 28.2618C13.4022 28.3227 13.7065 28.2531 13.9587 28.0793C14.211 27.9054 14.3848 27.6444 14.4456 27.3401C14.5065 27.0358 14.4369 26.7315 14.2631 26.4793C14.0893 26.2271 13.8283 26.0533 13.524 25.9924C13.2281 25.9398 12.9238 26.0009 12.6716 26.1747Z" fill="white"/>
<path d="M15.1152 25.9049C15.289 26.1571 15.4022 26.4442 15.4543 26.7309C16.4892 26.27 17.7152 25.583 17.6023 24.9829C17.4022 23.9567 16.2979 22.1654 14.8717 23.174C14.3064 23.574 13.95 24.2871 13.7151 24.9914H13.7238C14.2979 25.0961 14.7936 25.4265 15.1152 25.9048L15.1152 25.9049Z" fill="white"/>
<path d="M11.2715 26.4094C11.428 25.9746 11.7063 25.5918 12.0975 25.3311C12.5062 25.0528 12.9931 24.9311 13.48 24.9659C13.5061 23.9049 13.3495 22.279 12.0887 22.2441C10.219 22.1833 8.67111 24.0702 9.46261 25.114C9.82806 25.6181 10.5844 26.0702 11.2715 26.4094Z" fill="white"/>
<path d="M10.0366 30.4789C10.9062 30.5225 11.7846 29.7223 12.3412 29.0615C11.5237 28.644 11.0368 27.7483 11.176 26.8006C10.1671 26.7049 8.97599 26.7049 8.70648 27.1485C8.21902 27.9485 8.58447 30.4008 10.0366 30.4789Z" fill="white"/>
<path d="M15.463 26.8002C15.4978 27.0436 15.5066 27.2871 15.4542 27.5305C15.3761 27.9305 15.1932 28.2871 14.9238 28.5827C15.7674 29.4611 17.2804 30.7655 18.0371 29.809C19.1241 28.4437 18.7241 27.7219 18.124 27.1566C17.75 26.8262 16.4456 26.7826 15.463 26.8002Z" fill="white"/>
<path d="M15.5761 30.4095C15.4456 29.7137 15.1064 29.1139 14.8194 28.7051C14.7325 28.7832 14.6456 28.8616 14.5499 28.9313C14.1848 29.1835 13.7584 29.3052 13.3324 29.3052C13.1931 29.3052 13.0541 29.2879 12.9236 29.2616C12.8019 29.2356 12.6802 29.2008 12.567 29.1572C12.2799 29.905 12.0017 30.9224 12.3583 31.4442C12.9327 32.3138 15.8199 31.7139 15.5761 30.4095Z" fill="white"/>
<path d="M22.82 25.4445C22.9765 25.0097 23.2548 24.627 23.646 24.3663C24.0547 24.088 24.5416 23.9663 25.0285 24.0011C25.0545 22.9401 24.898 21.3141 23.6372 21.2793C21.7674 21.2184 20.2196 23.1054 21.0111 24.1491C21.385 24.6445 22.1417 25.1054 22.82 25.4445Z" fill="white"/>
<path d="M26.6724 24.9401C26.8462 25.1923 26.9594 25.4793 27.0115 25.766C28.0464 25.3052 29.2724 24.6182 29.1595 24.018C28.9594 22.9919 27.8551 21.2006 26.4289 22.2092C25.8636 22.6092 25.5072 23.3222 25.2723 24.0265L25.281 24.0268C25.8463 24.1313 26.342 24.4528 26.6724 24.9401Z" fill="white"/>
<path d="M24.22 25.2091C23.9678 25.3829 23.794 25.6439 23.7331 25.9482C23.6723 26.2525 23.7419 26.5568 23.9157 26.8091C24.0895 27.0613 24.3505 27.2351 24.6548 27.296C24.9591 27.3568 25.2634 27.2872 25.5157 27.1134C25.7679 26.9396 25.9417 26.6786 26.0026 26.3743C26.0634 26.07 25.9938 25.7657 25.82 25.5134C25.6462 25.2612 25.3852 25.0874 25.0809 25.0265C25.0113 25.0093 24.9331 25.0093 24.8635 25.0093C24.6376 25.009 24.4202 25.0786 24.22 25.2091Z" fill="white"/>
<path d="M21.5851 29.5053C22.4547 29.5488 23.3331 28.7486 23.8897 28.0879C23.5678 27.9225 23.281 27.6879 23.0722 27.3748C22.7591 26.9139 22.6461 26.3659 22.7242 25.8269C21.7154 25.7313 20.5242 25.7313 20.2547 26.1748C19.7678 26.9833 20.1329 29.4268 21.5851 29.5053Z" fill="white"/>
<path d="M26.0984 27.966C25.7332 28.2182 25.3069 28.3399 24.8809 28.3399C24.7416 28.3399 24.6026 28.3226 24.4721 28.2963C24.3504 28.2703 24.2287 28.2354 24.1154 28.1919C23.8284 28.9397 23.5501 29.9571 23.9068 30.4703C24.4982 31.3399 27.394 30.7398 27.1418 29.4354C27.0113 28.7396 26.6722 28.1397 26.3852 27.731C26.281 27.8181 26.1941 27.8963 26.0984 27.966Z" fill="white"/>
<path d="M26.481 27.6266C27.3246 28.505 28.8377 29.8095 29.5943 28.8529C30.6814 27.4877 30.2814 26.7658 29.6812 26.2005C29.3161 25.8613 28.0116 25.8178 27.0288 25.8353C27.0636 26.0788 27.0724 26.3222 27.02 26.5656C26.9334 26.9656 26.742 27.331 26.481 27.6266Z" fill="white"/>
<path d="M30.3682 33.5315C30.116 33.7053 29.9422 33.9663 29.8813 34.2706C29.7596 34.8968 30.1768 35.4969 30.7946 35.6186C31.0989 35.6795 31.4032 35.6099 31.6554 35.4361C31.9076 35.2623 32.0814 35.0013 32.1423 34.697C32.2032 34.3927 32.1335 34.0884 31.9597 33.8361C31.7859 33.5839 31.5249 33.4101 31.2206 33.3492C30.9248 33.2969 30.6205 33.3577 30.3682 33.5315Z" fill="white"/>
<path d="M31.4118 32.3403C31.9943 32.4532 32.4815 32.7751 32.8118 33.2535C32.9856 33.5058 33.0989 33.7928 33.151 34.0795C34.1859 33.6187 35.4119 32.9316 35.299 32.3315C35.0988 31.3054 33.9946 29.514 32.5684 30.5227C32.0031 30.9229 31.6464 31.636 31.4118 32.3403Z" fill="white"/>
<path d="M29.7769 29.5923C27.9071 29.5314 26.3593 31.4184 27.1508 32.4621C27.5335 32.9666 28.2899 33.4186 28.9681 33.7578C29.1247 33.323 29.4029 32.9403 29.7941 32.6795C30.2029 32.4013 30.6898 32.2795 31.1767 32.3144C31.1945 31.2619 31.038 29.6355 29.7769 29.5923Z" fill="white"/>
<path d="M35.7337 37.1664C36.8208 35.8011 36.4208 35.0793 35.8206 34.514C35.4555 34.1748 34.1511 34.1312 33.1682 34.1488C33.203 34.3922 33.2118 34.6357 33.1594 34.8791C33.0813 35.2879 32.8899 35.6443 32.6289 35.9313C33.4728 36.8185 34.9773 38.1229 35.7337 37.1664Z" fill="white"/>
<path d="M28.8638 34.1575C27.8549 34.0618 26.6637 34.0618 26.3942 34.5054C25.9073 35.3054 26.2725 37.7492 27.7247 37.8273C28.5943 37.8709 29.4727 37.0707 30.0292 36.4099C29.2114 35.9924 28.7245 35.0968 28.8638 34.1575Z" fill="white"/>
<path d="M33.2727 37.7576C33.1422 37.0618 32.8031 36.462 32.5075 36.0444C32.1076 36.4184 31.5771 36.6531 31.0117 36.6531C30.8812 36.6531 30.7422 36.6443 30.603 36.6182C30.4812 36.5922 30.3595 36.5574 30.2463 36.5138C29.9593 37.2616 29.681 38.279 30.0377 38.8008C30.629 39.6707 33.5161 39.0621 33.2727 37.7576Z" fill="white"/>
<path d="M25.2201 43.8799C25.542 42.9581 26.4464 42.3668 27.4202 42.4362C27.4462 41.3751 27.2897 39.7492 26.0288 39.7143C24.1591 39.6535 22.6113 41.5404 23.4027 42.5842C23.7764 43.0884 24.5331 43.5407 25.2201 43.8799Z" fill="white"/>
<path d="M27.0463 45.7323C27.3506 45.7932 27.6549 45.7235 27.9071 45.5497C28.1594 45.3759 28.3332 45.1149 28.394 44.8106C28.5158 44.1845 28.0985 43.5843 27.4808 43.4626C27.4112 43.4453 27.333 43.4453 27.2634 43.4453C27.0372 43.4453 26.8113 43.5149 26.62 43.6454C26.3677 43.8193 26.1939 44.0803 26.1331 44.3845C26.0722 44.6889 26.1418 44.9932 26.3156 45.2454C26.4897 45.4976 26.7508 45.6714 27.0463 45.7323Z" fill="white"/>
<path d="M27.6637 42.4619C28.577 42.6357 29.2376 43.3488 29.4029 44.2099C30.4379 43.749 31.6639 43.062 31.551 42.4619C31.3508 41.4358 30.2465 39.6444 28.8204 40.653C28.2551 41.0445 27.8987 41.7576 27.6637 42.4619Z" fill="white"/>
<path d="M23.9765 47.9496C24.8462 47.9932 25.7245 47.193 26.2811 46.5322C25.9592 46.3669 25.6725 46.1322 25.4636 45.8191C25.1505 45.3583 25.0376 44.8102 25.1157 44.2713C24.1068 44.1756 22.9156 44.1756 22.6461 44.6192C22.1592 45.4189 22.5244 47.8712 23.9765 47.9496Z" fill="white"/>
<path d="M31.9857 47.289C33.0727 45.9237 32.6727 45.2018 32.0726 44.6365C31.7074 44.2974 30.403 44.2538 29.4117 44.2713C29.4465 44.506 29.4553 44.7582 29.4029 45.0017C29.3248 45.4017 29.1419 45.7583 28.8724 46.0539C29.716 46.9411 31.2205 48.237 31.9857 47.289Z" fill="white"/>
<path d="M26.281 48.9151C26.8724 49.7848 29.7683 49.1846 29.5161 47.8802C29.3856 47.1844 29.0464 46.5846 28.7594 46.1758C28.6725 46.2539 28.5856 46.3323 28.4899 46.402C28.1248 46.6542 27.6984 46.7759 27.2724 46.7759C27.1331 46.7759 26.9941 46.7586 26.8636 46.7323C26.7419 46.7063 26.6202 46.6715 26.4985 46.6279C26.2114 47.3845 25.9331 48.4019 26.281 48.9151Z" fill="white"/>
<path d="M12.1498 43.471C12.5325 43.9755 13.2889 44.4275 13.9759 44.7667C14.2978 43.845 15.2022 43.2536 16.176 43.323C16.202 42.262 16.0455 40.636 14.7846 40.6012C12.9061 40.5491 11.3583 42.4276 12.1498 43.471Z" fill="white"/>
<path d="M15.8022 46.619C16.1065 46.6799 16.4108 46.6103 16.663 46.4364C16.9152 46.2626 17.089 46.0016 17.1499 45.6973C17.2716 45.0712 16.8544 44.471 16.2367 44.3493C16.167 44.332 16.0889 44.332 16.0193 44.332C15.48 44.332 14.9931 44.7147 14.8886 45.2625C14.8278 45.5668 14.8974 45.8711 15.0712 46.1234C15.2456 46.3929 15.5066 46.5667 15.8022 46.619Z" fill="white"/>
<path d="M18.1588 45.0971C19.1937 44.6363 20.4198 43.9492 20.3068 43.3491C20.1067 42.323 19.0024 40.5316 17.5763 41.5402C17.0109 41.9402 16.6545 42.6533 16.4196 43.3576H16.4284C17.3328 43.5229 17.9938 44.236 18.1588 45.0971Z" fill="white"/>
<path d="M17.5153 47.0625C17.4284 47.1406 17.3415 47.219 17.2458 47.2887C16.8806 47.5409 16.4543 47.6626 16.0283 47.6626C15.889 47.6626 15.75 47.6454 15.6195 47.619C15.4978 47.593 15.3761 47.5582 15.2543 47.5146C14.9673 48.2624 14.689 49.2798 15.0457 49.793C15.6371 50.6627 18.5329 50.0625 18.2808 48.7581C18.1415 48.0714 17.8023 47.4712 17.5153 47.0625Z" fill="white"/>
<path d="M20.8198 45.532C20.4547 45.1929 19.1503 45.1493 18.1589 45.1668C18.1937 45.4015 18.2025 45.6537 18.1501 45.8972C18.072 46.2972 17.8891 46.6538 17.6196 46.9494C18.4632 47.8278 19.9763 49.1322 20.7329 48.1757C21.8284 46.8189 21.4285 46.097 20.8198 45.532Z" fill="white"/>
<path d="M14.2195 46.7146C13.9064 46.2538 13.7934 45.7057 13.8716 45.1668C12.8627 45.0711 11.6715 45.0711 11.402 45.5147C10.9151 46.3147 11.2803 48.7585 12.7324 48.8366C13.6021 48.8802 14.4804 48.08 15.037 47.4192C14.7151 47.2624 14.4281 47.0274 14.2195 46.7146Z" fill="white"/>
<path d="M65.7007 45.5672C65.9877 45.9848 66.8573 45.8976 67.6313 45.3671C68.4052 44.8366 68.8052 44.0627 68.5097 43.6366C68.2226 43.2191 67.353 43.3063 66.579 43.8368C65.8136 44.367 65.4136 45.1409 65.7007 45.5672Z" fill="white"/>
<path d="M69.8922 46.2104C69.6052 45.7928 68.7355 45.88 67.9616 46.4105C67.1876 46.941 66.7877 47.7149 67.0832 48.141C67.3702 48.5585 68.2399 48.4713 69.0138 47.9408C69.7878 47.4016 70.1877 46.6276 69.8922 46.2104Z" fill="white"/>
<path d="M70.7183 45.2367C71.4923 44.7062 71.8922 43.9323 71.5967 43.5063C71.3097 43.0887 70.4401 43.1759 69.6661 43.7064C68.8921 44.2369 68.4922 45.0108 68.7877 45.4369C69.0748 45.8629 69.9444 45.7672 70.7183 45.2367Z" fill="white"/>
<path d="M72.2402 47.4192C73.1185 47.0713 73.6663 46.4019 73.4837 45.9322C73.2924 45.4538 72.4315 45.3581 71.5619 45.706C70.6835 46.0539 70.1357 46.7234 70.3183 47.1931C70.5097 47.6627 71.3705 47.7672 72.2402 47.4192Z" fill="white"/>
<path d="M73.4649 50.4974C74.3433 50.1495 74.891 49.48 74.7084 49.0103C74.5171 48.5319 73.6562 48.4363 72.7866 48.7842C71.9082 49.1321 71.3604 49.8015 71.543 50.2712C71.7341 50.7408 72.5953 50.8453 73.4649 50.4974Z" fill="white"/>
<path d="M73.0156 52.4543C72.0851 52.5673 71.372 53.0629 71.4329 53.5761C71.4937 54.0806 72.3025 54.4021 73.233 54.2892C74.1635 54.1762 74.8765 53.6806 74.8157 53.1674C74.7636 52.663 73.9548 52.3411 73.0156 52.4543Z" fill="white"/>
<path d="M76.9796 50.8112C76.8491 50.3155 76.0055 50.1069 75.101 50.3503C74.1878 50.585 73.5532 51.1852 73.6836 51.672C73.8141 52.1677 74.6577 52.3763 75.5622 52.1329C76.4754 51.8982 77.11 51.298 76.9796 50.8112Z" fill="white"/>
<path d="M73.3417 47.6022C73.4722 48.0979 74.3157 48.3065 75.2202 48.063C76.1334 47.8284 76.768 47.2282 76.6376 46.7414C76.5071 46.2457 75.6635 46.0371 74.7591 46.2805C73.8461 46.5152 73.22 47.1153 73.3417 47.6022Z" fill="white"/>
<path d="M73.8997 45.1148C74.8129 44.8801 75.4475 44.28 75.3171 43.7931C75.1866 43.2975 74.343 43.0888 73.4386 43.3323C72.5253 43.567 71.8907 44.1671 72.0212 44.6539C72.1429 45.1496 72.9864 45.3582 73.8997 45.1148Z" fill="white"/>
<path d="M69.9502 50.1849C70.8286 49.837 71.3763 49.1675 71.1937 48.6978C71.0024 48.2194 70.1415 48.1238 69.2719 48.4717C68.3935 48.8196 67.8457 49.489 68.0283 49.9587C68.2109 50.4284 69.0806 50.5328 69.9502 50.1849Z" fill="white"/>
<path d="M70.1966 52.7155C71.1358 52.7155 71.901 52.298 71.901 51.7938C71.901 51.2809 71.1358 50.8721 70.1966 50.8721C69.2573 50.8721 68.4921 51.2896 68.4921 51.7938C68.4921 52.2982 69.2573 52.7155 70.1966 52.7155Z" fill="white"/>
<path d="M70.2256 53.5591C69.408 53.0894 68.5384 53.0634 68.2862 53.507C68.0339 53.9506 68.4863 54.6897 69.3035 55.1593C70.1211 55.6289 70.9907 55.655 71.2429 55.2114C71.4952 54.7678 71.0431 54.0287 70.2256 53.5591Z" fill="white"/>
<path d="M69.6487 61.9853C69.9358 61.9592 70.1444 61.7158 70.1183 61.4287C70.0923 61.1417 69.8573 60.9418 69.5618 60.9591C69.24 60.9852 68.9184 60.9852 68.5878 60.9852L69.927 59.9329C70.1532 59.7591 70.188 59.4373 70.0139 59.2111C69.8401 58.9849 69.5182 58.9501 69.292 59.1242L67.092 60.8634C66.3529 60.7589 65.6138 60.5939 64.8743 60.385L66.8657 59.1675C67.1092 59.0197 67.1876 58.7066 67.0395 58.4632C66.8918 58.2197 66.5787 58.1413 66.3352 58.2894L63.5786 59.9765C62.9437 59.7591 62.3263 59.5156 61.7264 59.2546L62.6133 58.8111C62.8655 58.6806 62.97 58.3762 62.8395 58.124C62.709 57.8718 62.4047 57.7673 62.1524 57.8978L60.5262 58.7154C59.4564 58.2024 58.4914 57.6804 57.6652 57.2023L59.6045 56.4371C59.8655 56.3327 59.9958 56.0371 59.8916 55.7676C59.7871 55.5066 59.4916 55.3764 59.2221 55.4806L56.5524 56.5328C56.1088 56.2546 55.7524 56.0199 55.5001 55.8458C56.7349 55.1155 57.683 54.5935 58.1002 54.3412C59.4655 53.5064 62.6485 52.2977 63.8396 51.8541C65.8135 52.3498 67.5095 53.0456 67.5095 53.0456L67.9007 51.8804C66.3788 51.6022 64.2657 50.8106 63.7528 50.6108C64.0222 49.7848 64.8138 47.8627 66.5962 46.5322L65.0396 46.0193C65.0396 46.0193 62.3699 49.3412 62.3787 50.9239C61.6047 51.263 60.3003 51.7763 58.1003 52.5763C55.8393 53.4022 53.2129 54.9417 50.839 56.5331C51.0476 55.5679 51.4824 54.5677 52.0477 53.5676H54.3783C54.6653 53.5676 54.8912 53.3414 54.8912 53.0547C54.8912 52.7676 54.6651 52.5417 54.3783 52.5417H52.6651C53.0999 51.8723 53.5783 51.2113 54.0825 50.5851L56.8479 50.2284C57.1261 50.1936 57.3263 49.9329 57.2914 49.6543C57.2566 49.3761 56.9959 49.1759 56.7174 49.2108L55.039 49.4282C55.5783 48.802 56.1173 48.2106 56.6217 47.6889L59.4652 47.3671C59.7435 47.3323 59.9521 47.08 59.9173 46.8018C59.8825 46.5235 59.6302 46.3149 59.352 46.3497L57.778 46.5235C58.604 45.7235 59.1693 45.2363 59.1869 45.2191C59.4043 45.0365 59.4303 44.7061 59.239 44.4972C59.0564 44.2798 58.726 44.2626 58.5171 44.4451C58.439 44.5148 57.8997 44.9756 57.1346 45.7148L57.2739 44.8624C57.3175 44.5842 57.1261 44.3147 56.8478 44.2711C56.5608 44.219 56.3001 44.4188 56.2565 44.6971L55.8913 46.958C55.3696 47.4973 54.8131 48.1059 54.2477 48.7581L54.1521 46.9232C54.1348 46.6362 53.8998 46.4188 53.6128 46.4363C53.3258 46.4536 53.1083 46.6973 53.1259 46.9756L53.2824 49.9236C52.7955 50.541 52.3259 51.1844 51.8911 51.8454L51.4999 49.9932C51.4391 49.715 51.1696 49.5324 50.8913 49.5933C50.613 49.6541 50.4392 49.9236 50.4913 50.2019L51.1087 53.1238C50.7608 53.7587 50.4477 54.3934 50.2131 55.0283L49.2042 53.4456C49.0476 53.2022 48.7346 53.1325 48.4911 53.2891C48.2564 53.4456 48.178 53.7587 48.3346 54.0021L49.7695 56.2458C49.7868 56.2718 49.8043 56.2894 49.8216 56.3067C49.7695 56.5589 49.7171 56.8111 49.6911 57.0545C49.6823 57.1327 49.6911 57.2111 49.7171 57.2807C47.0039 59.1677 44.795 60.9506 44.1776 61.4635C44.2557 59.585 44.3254 58.0807 44.369 57.2547C44.5603 53.3674 45.3082 41.8973 45.3603 37.0883C45.4908 37.0883 45.6298 37.0362 45.7255 36.923C46.8213 35.7491 48.7344 34.0795 49.604 34.0271C50.4648 33.975 51.2563 33.949 52.0042 33.9314C52.013 34.0532 52.0563 34.1837 52.152 34.2794L53.6041 35.6882C53.6998 35.7839 53.8303 35.836 53.9608 35.836C54.0913 35.836 54.2303 35.7839 54.326 35.6794C54.5261 35.4793 54.5174 35.1489 54.3172 34.9491L53.2562 33.9142C54.6215 33.9054 55.7869 33.949 56.7607 34.0271C56.778 34.1053 56.8128 34.1837 56.8652 34.2445L58.4566 36.0534C58.5611 36.1664 58.7001 36.2272 58.8393 36.2272C58.9611 36.2272 59.0828 36.1836 59.1785 36.0967C59.3959 35.9054 59.4131 35.5838 59.2221 35.3749L58.1611 34.1661C58.7088 34.2357 59.1784 34.3226 59.5785 34.4008C59.5872 34.4095 59.5872 34.4268 59.6045 34.4444C59.709 34.5573 59.848 34.6182 59.9872 34.6182C60.0653 34.6182 60.1438 34.5921 60.2134 34.5573C60.2655 34.5746 60.3179 34.5834 60.3612 34.6009C60.4656 34.627 60.5613 34.653 60.6567 34.679C60.674 34.7139 60.6827 34.7487 60.7088 34.7835L61.9436 36.4531C62.048 36.5924 62.1958 36.6617 62.3611 36.6617C62.4656 36.6617 62.5697 36.6269 62.6654 36.5573C62.8916 36.3919 62.9437 36.0703 62.7699 35.8354L62.1089 34.9398C62.5785 34.9919 63.0221 35.0179 63.4393 35.0179L65.5089 36.9309C65.6046 37.0266 65.7351 37.0702 65.8568 37.0702C65.9961 37.0702 66.1351 37.0181 66.2308 36.9049C66.4221 36.6962 66.4134 36.3744 66.2047 36.183L64.8394 34.9222C66.1091 34.7484 66.9091 34.4005 66.9699 34.3745C67.2309 34.2615 67.3438 33.9569 67.2309 33.6962C67.1179 33.4352 66.8133 33.3223 66.5526 33.4352C66.5353 33.444 65.7439 33.7831 64.483 33.9309C64.8918 33.2787 65.4743 32.522 65.7353 32.2004C65.9179 31.983 65.8831 31.6527 65.6657 31.4786C65.4483 31.296 65.1264 31.3308 64.9438 31.5482C64.8133 31.7135 63.7438 33.0353 63.2655 33.9918C62.5872 33.983 61.8393 33.9049 61.0393 33.7135C61.2915 33.3916 61.5438 33.044 61.7784 32.6874L62.7698 32.8875C62.8046 32.8963 62.8394 32.8963 62.8742 32.8963C63.1089 32.8963 63.3263 32.7309 63.3787 32.4875C63.4395 32.2092 63.257 31.9397 62.9787 31.8789L62.3701 31.7572C62.6135 31.3572 62.8137 31.0005 62.9354 30.7831L63.6397 30.7395C63.9267 30.7223 64.1354 30.4785 64.1266 30.2003C64.1093 29.9132 63.8656 29.7134 63.5873 29.7134L62.596 29.7742C62.4134 29.783 62.2568 29.8872 62.1699 30.0437C62.1527 30.0698 60.9524 32.3222 59.935 33.4353C59.248 33.2787 58.3611 33.1398 57.2393 33.0441L57.9436 31.8962C57.9872 31.9135 58.0393 31.9222 58.0914 31.9222H58.1174L59.4046 31.8614C59.6916 31.8441 59.909 31.6091 59.8915 31.3221C59.8742 31.0351 59.6305 30.8177 59.3522 30.8352L58.5785 30.8618L59.109 29.9922H60.4307C60.7177 29.9922 60.9436 29.766 60.9436 29.4793C60.9436 29.1922 60.7175 28.9663 60.4307 28.9663H58.8132C58.6306 28.9663 58.4653 29.062 58.3784 29.2098L56.3349 32.549C56.2568 32.6795 56.248 32.8272 56.2828 32.9665C55.5262 32.9229 54.6829 32.8884 53.7348 32.8884L54.6481 31.4013H56.083C56.37 31.4013 56.5959 31.1751 56.5959 30.8884C56.5959 30.6014 56.3698 30.3755 56.083 30.3755L55.2827 30.3749L55.961 29.2706L57.4656 28.9924C57.7438 28.9403 57.9264 28.6705 57.8743 28.3922C57.8223 28.114 57.5525 27.9314 57.2742 27.9835L55.5438 28.3053C55.4045 28.3314 55.2743 28.4183 55.1959 28.54L52.5698 32.81C52.5525 32.8448 52.5437 32.8796 52.5349 32.9056C51.8655 32.9144 51.1436 32.9405 50.3782 32.9753C50.6043 32.5577 50.813 32.1838 51.0043 31.871L52.5522 31.6797C52.8304 31.6448 53.0306 31.3841 52.9957 31.1056C52.9609 30.8273 52.7002 30.6272 52.4217 30.662L51.7695 30.7401C52.2912 30.0619 52.587 29.8965 52.6303 29.8793C52.8825 29.8096 53.0391 29.5489 52.987 29.2879C52.9349 29.0097 52.6566 28.8271 52.3869 28.8792C52.0998 28.94 51.0216 29.4184 49.1606 33.0619C47.8822 33.3662 46.1342 35.0098 45.317 35.8361C45.1952 32.2011 46.004 28.0008 46.004 28.0008C46.004 28.0008 44.3429 29.3489 43.2822 29.6008C43.2822 29.6008 43.5692 36.723 43.2822 37.836C42.9951 38.9491 43.3258 44.4974 42.4386 46.193C42.4386 46.193 35.8992 41.7929 34.3164 41.158H32.6553V42.9408C32.6553 42.9408 33.2554 42.8627 34.1683 43.1755C35.0816 43.4886 41.134 48.1322 41.7601 48.7584C43.2038 50.2193 42.6297 52.4194 42.108 58.5328C41.986 60.2551 41.7165 64.7769 41.4991 68.6899C40.9686 68.0377 40.4033 67.4203 39.8295 66.8377C40.0033 66.7333 40.099 66.5422 40.0729 66.3421L39.7078 63.4898C39.6729 63.2115 39.4122 63.0029 39.1337 63.0462C38.8554 63.081 38.6553 63.3417 38.6901 63.6203L39.0032 66.029C38.3161 65.3855 37.6119 64.7854 36.8988 64.2289L36.4552 61.4635C36.4116 61.1852 36.1509 60.9939 35.8638 61.0375C35.5856 61.0811 35.3942 61.3418 35.4378 61.6288L35.7161 63.3505C35.003 62.8461 34.2987 62.3852 33.5941 61.9592L32.6201 59.3504C32.5244 59.0809 32.2289 58.9504 31.9591 59.046C31.6896 59.1417 31.5591 59.4373 31.6548 59.707L32.1941 61.1507C31.3766 60.7072 30.5766 60.3159 29.8199 59.9681L28.5415 56.9072C28.4285 56.6462 28.1327 56.5244 27.872 56.6289C27.611 56.7418 27.4893 57.0377 27.5937 57.2984L28.4633 59.3768C27.6458 59.0376 26.8894 58.7594 26.2284 58.5332L24.9676 56.1677C24.8371 55.9155 24.524 55.8198 24.2718 55.9591C24.0196 56.0896 23.9239 56.4027 24.0632 56.6549L24.8284 58.0811C23.9067 57.8116 23.3502 57.6899 23.3238 57.6899C23.0455 57.629 22.776 57.8116 22.7152 58.0899C22.6543 58.3681 22.8369 58.6376 23.1152 58.6985C23.1412 58.7073 23.7326 58.829 24.7151 59.1245L23.4455 60.0114C23.2108 60.1767 23.1584 60.4983 23.3238 60.7244C23.4194 60.8637 23.5848 60.9418 23.7413 60.9418C23.8458 60.9418 23.9499 60.9158 24.0368 60.8462L25.9414 59.507C26.6632 59.7504 27.498 60.0635 28.4024 60.4462L26.2372 62.0898C26.011 62.2636 25.9677 62.5855 26.1415 62.8116C26.2459 62.9421 26.3937 63.0118 26.5503 63.0118C26.6547 63.0118 26.7677 62.9769 26.8633 62.9073L29.481 60.9159C30.3158 61.2986 31.1854 61.7334 32.081 62.2376L30.4199 63.0724C30.1677 63.2029 30.0632 63.5072 30.1937 63.7594C30.2806 63.942 30.4632 64.0377 30.6546 64.0377C30.7327 64.0377 30.8111 64.0204 30.8893 63.9856L33.1414 62.8465C33.8805 63.2986 34.6372 63.7942 35.3851 64.3335L33.1071 65.2552C32.8461 65.3597 32.7159 65.664 32.8201 65.9247C32.8982 66.1249 33.0896 66.2466 33.2985 66.2466C33.3594 66.2466 33.429 66.2378 33.4899 66.2118L36.3334 65.0551C36.9335 65.5247 37.5334 66.0377 38.1162 66.5769L36.7509 67.3073C36.4987 67.4378 36.403 67.7508 36.5423 68.0031C36.638 68.1769 36.8118 68.2726 36.9944 68.2726C37.0725 68.2726 37.1597 68.2553 37.2378 68.2117L38.8989 67.3248C39.7773 68.2032 40.6121 69.151 41.3948 70.1947C41.4036 70.2035 41.4121 70.212 41.4208 70.2207C41.2643 73.0642 41.1426 75.2647 41.1426 75.2647L41.1423 83.9086H43.2467C43.2467 83.9086 43.6988 73.1863 44.0382 65.1684C46.3166 61.7421 51.1256 58.4898 54.5344 56.4201C54.7346 56.5594 55.2648 56.933 56.0563 57.429L56.7781 60.5423C56.8302 60.777 57.0476 60.9423 57.2738 60.9423C57.3086 60.9423 57.3519 60.9423 57.3867 60.925C57.665 60.8642 57.8388 60.5859 57.7694 60.3076L57.2738 58.1596C58.0913 58.638 59.0478 59.151 60.1 59.6554L60.9609 62.647C61.0217 62.8731 61.2304 63.0209 61.4565 63.0209C61.5001 63.0209 61.5522 63.0121 61.5958 63.0036C61.8653 62.9255 62.0306 62.6385 61.9525 62.3687L61.3351 60.2207C61.97 60.4902 62.6308 60.7512 63.3005 60.9773L64.683 63.2906C64.7787 63.456 64.9525 63.5429 65.1266 63.5429C65.2135 63.5429 65.3092 63.5168 65.3876 63.4732C65.6311 63.3255 65.7095 63.0124 65.5614 62.7689L64.7615 61.4297C65.4224 61.6123 66.0919 61.7516 66.7529 61.8558C66.7701 61.873 66.7789 61.8906 66.7965 61.9078L69.3009 63.9514C69.3966 64.0295 69.5095 64.0643 69.6227 64.0643C69.7705 64.0643 69.9183 64.0034 70.0227 63.873C70.2053 63.6555 70.1705 63.3337 69.9531 63.1511L68.5618 62.012C68.6487 62.012 68.7271 62.0208 68.814 62.0208C69.0832 62.0117 69.37 62.0029 69.6483 61.9857L69.6487 61.9853Z" fill="white"/>
</g>
<defs>
<filter id="filter0_d_90_396" x="0.867722" y="0.423828" width="80.1288" height="91.4849" filterUnits="userSpaceOnUse" color-interpolation-filters="sRGB">
<feFlood flood-opacity="0" result="BackgroundImageFix"/>
<feColorMatrix in="SourceAlpha" type="matrix" values="0 0 0 0 0 0 0 0 0 0 0 0 0 0 0 0 0 0 127 0" result="hardAlpha"/>
<feOffset dy="4"/>
<feGaussianBlur stdDeviation="2"/>
<feComposite in2="hardAlpha" operator="out"/>
<feColorMatrix type="matrix" values="0 0 0 0 0 0 0 0 0 0 0 0 0 0 0 0 0 0 0.25 0"/>
<feBlend mode="normal" in2="BackgroundImageFix" result="effect1_dropShadow_90_396"/>
<feBlend mode="normal" in="SourceGraphic" in2="effect1_dropShadow_90_396" result="shape"/>
</filter>
</defs>
</svg>
