<svg width="91" height="77" viewBox="0 0 91 77" fill="none" xmlns="http://www.w3.org/2000/svg">
<path d="M70.9939 8.61263L61.8256 0.255859L58.4584 3.89459C60.6866 6.08781 64.0931 9.38519 67.3571 12.3243L70.9939 8.61263Z" fill="white"/>
<path d="M44.4414 18.3525C39.9787 22.8818 6.24077 57.3344 0.80485 64.414C-0.000831574 65.4634 0.222999 66.7865 0.553795 67.7126C1.68451 70.8847 6.03538 75.0358 12.9168 76.6555C16.3839 77.466 20.1167 72.0488 22.4229 62.8407C25.3625 51.0966 48.3974 30.8621 52.3028 27.4986C50.1449 24.1874 47.5722 21.1899 44.441 18.3532L44.4414 18.3525Z" fill="white"/>
<path d="M73.2639 19.1245C68.3674 15.9296 57.8489 5.48588 55.3928 3.02246C53.2835 4.82883 45.5982 11.5547 43.4167 15.4289C50.4514 21.2436 55.0485 27.564 58.2793 35.8446C58.9978 37.6862 62.6724 49.6701 63.6254 52.7901C66.0671 52.0475 74.5087 49.0284 82.1146 40.9731C88.5268 34.183 90.4517 25.3588 90.9403 22.3552C88.0852 22.8701 80.2611 23.6883 73.2643 19.1245H73.2639Z" fill="white"/>
</svg>
