<svg width="79" height="80" viewBox="0 0 79 80" fill="none" xmlns="http://www.w3.org/2000/svg">
<path d="M70.4567 6.10251L68.6332 4.27896C67.7925 5.01424 67.5703 4.79199 67.4148 4.6365C66.9089 4.13061 66.2675 2.78228 67.0887 1.96109C67.9051 1.14471 69.2204 1.78437 69.7437 2.30763C69.9063 2.47029 70.1201 2.68563 69.4081 3.50254L71.2684 5.36288L73.1684 3.6281L72.8211 3.28078L73.5635 2.62172L72.8886 1.94676L74.2776 0.717886L74.951 1.39127L75.4389 0.958541L75.4681 0.933478L78.1126 3.57798L77.6512 4.09256L78.3451 4.78644L77.1162 6.17542L76.4231 5.48233L76.541 5.33322L75.7531 6.21377L75.4308 5.89151L74.4748 6.90888L76.227 8.66106C77.0442 7.94929 77.261 8.16313 77.4226 8.32476C77.9467 8.8488 78.5856 10.1649 77.77 10.9805C76.949 11.8015 75.5992 11.1606 75.093 10.6544C74.9383 10.4997 74.7168 10.2782 75.4505 9.43601L73.7237 7.70917L71.545 10.0291L73.2311 11.7153C74.0483 11.0035 74.2651 11.2173 74.4268 11.379C74.9508 11.903 75.5889 13.2199 74.7733 14.0355C73.9531 14.8557 72.6033 14.2148 72.0971 13.7086C71.9424 13.5539 71.7209 13.3324 72.4547 12.4902L70.7938 10.8294L68.499 13.2736L68.4997 13.2743L50.4681 31.842L49.5699 32.7668L35.711 47.0375L34.2575 45.5841L67.534 12.3076L66.6217 11.3953L33.3452 44.6718L31.9145 43.2411L46.1845 29.3814L47.1108 28.4847L65.6775 10.4521L65.6869 10.4615L67.2959 8.99221L65.5808 7.27715C64.7394 8.01321 64.5171 7.79097 64.3616 7.63547C63.8558 7.12959 63.2151 5.78049 64.0355 4.96006C64.8519 4.14368 66.168 4.78256 66.6913 5.30582C66.8539 5.46848 67.0678 5.68382 66.3557 6.50073L68.1068 8.25186L70.4567 6.10251ZM25.6685 58.0227L23.7437 56.0979L22.8875 56.9542L24.8122 58.8789L25.6685 58.0227ZM20.0504 54.1171L21.9745 56.0412L22.8307 55.1849L20.9067 53.2609L20.0504 54.1171ZM7.28717 56.1101C5.31049 54.1334 2.51434 53.6063 1.18237 53.4656C1.01025 53.4475 0.883652 53.4406 0.766004 53.4309C2.68697 49.4751 6.25013 46.4542 10.0744 45.0734C10.4774 44.9281 11.1751 43.9787 11.4713 43.2335C11.5012 43.2634 11.5657 43.334 11.6647 43.433C12.5414 44.3097 16.0886 47.3761 20.8193 42.6455L23.7379 39.7268C28.6374 34.8274 25.2559 31.4397 25.2559 31.4397C25.9566 31.2448 26.6889 30.7545 26.9607 30.3635C31.1177 24.3585 37.0694 21.9945 45.1804 28.5552L31.0127 42.3142L30.0746 43.2257L32.4309 45.5819L23.7413 54.2714L20.905 51.4352L18.2227 54.1175L21.059 56.9538L16.6672 61.3456L13.4153 58.0937L12.3805 59.7412C11.8777 60.5397 11.558 61.3197 11.2491 62.0777C10.8366 63.0857 10.4469 64.0396 9.62514 65.0844C8.95253 65.9375 8.05302 66.9219 7.15356 67.8767C7.262 67.6363 7.38144 67.3833 7.49448 67.1475C8.50317 65.0468 10.1931 61.5276 8.73512 58.223C8.38807 57.436 7.90109 56.7255 7.28656 56.111L7.28717 56.1101ZM12.7508 50.7897C14.8227 52.8616 17.5968 50.6184 19.784 48.4311C22.7318 45.4833 23.4993 46.2509 23.7878 46.5393C23.8374 46.589 23.8709 46.6414 23.8985 46.6941C23.7586 46.6754 23.6164 46.7107 23.4924 46.8C23.2384 46.8227 22.988 46.9161 22.7916 47.1125C22.3517 47.5524 22.351 48.2682 22.7916 48.7088C23.2341 49.1513 23.9481 49.1487 24.388 48.7088C24.4289 48.6679 24.4499 48.6137 24.4816 48.5697L24.4918 48.58C25.1266 47.9452 25.7067 46.6347 24.7008 45.6288C22.9369 43.8649 20.5304 45.8631 18.8735 47.5201C15.0896 51.3039 14.0548 50.2691 13.665 49.8794C13.3909 49.6052 13.3807 49.2932 13.4615 49.0144C13.8794 49.2047 14.3855 49.1354 14.7272 48.7937C15.1679 48.353 15.1679 47.6395 14.7265 47.198C14.2858 46.7574 13.5708 46.7559 13.1301 47.1965C13.0838 47.2428 13.0626 47.3004 13.0278 47.3505L13.0129 47.3357C12.3697 47.9779 11.4889 49.5278 12.7508 50.7897ZM13.4728 60.4293C12.4027 62.1341 12.2275 63.8649 10.6396 65.8835C9.72573 67.0454 8.45084 68.3914 7.27436 69.6272C7.28076 69.6367 7.28536 69.6444 7.29098 69.6531C7.66976 70.2472 8.24469 71.0231 8.86054 71.8042C8.86924 71.8159 8.87947 71.8262 8.8874 71.8372C10.2551 70.5605 11.7754 69.1328 13.0649 68.1518C15.0487 66.6395 16.7339 66.5441 18.5267 65.4443L18.7845 65.2858L13.65 60.1513L13.4728 60.4293ZM9.0648 75.9512L10.8341 74.182L10.4768 73.7695C10.2325 73.4889 9.96912 73.1707 9.69981 72.8447C9.76733 72.7817 9.82847 72.7252 9.89855 72.6618C11.1893 71.4559 12.6515 70.0894 13.8448 69.1805C14.8379 68.4232 15.7566 68.0687 16.7274 67.6948C17.5192 67.39 18.3386 67.0749 19.2031 66.5439L20.8499 65.5273L19.6967 64.3736L17.5824 62.2593L21.9741 57.8675L24.8104 60.7038L27.4928 58.0215L24.6565 55.1852L33.346 46.4957L35.725 48.8747L36.6358 47.9358L50.3936 33.7708C56.9367 41.874 54.5733 47.82 48.5721 51.9749C48.1801 52.2457 47.6898 52.9764 47.4944 53.6781C47.4944 53.6781 44.1075 50.2973 39.208 55.1968L36.2894 58.1154C31.5587 62.8461 34.6236 66.3918 35.5011 67.2694C35.6001 67.3683 35.6707 67.4328 35.7006 67.4627C34.9556 67.7581 34.0076 68.4581 33.8622 68.8612C30.8843 77.0995 20.3698 84.2422 9.06447 75.9512L9.0648 75.9512ZM31.58 65.903C31.6289 65.8669 31.6867 65.8464 31.7332 65.7999C32.1739 65.3592 32.1716 64.6434 31.7325 64.2043C31.29 63.7618 30.5775 63.7629 30.1369 64.2035C29.7944 64.546 29.7243 65.0514 29.9146 65.4678C29.6366 65.5493 29.3253 65.5399 29.0512 65.2657C28.6606 64.8752 27.6258 63.8404 31.4097 60.0565C33.0667 58.3995 35.0646 55.9929 33.3009 54.2292C32.2945 53.2228 30.9846 53.8034 30.3498 54.4382L30.36 54.4484C30.3158 54.4814 30.2611 54.5018 30.2209 54.542C29.781 54.9819 29.7787 55.6962 30.2209 56.1384C30.6616 56.579 31.3782 56.579 31.818 56.1391C32.0099 55.9473 32.1001 55.7046 32.126 55.4573C32.2226 55.3294 32.2602 55.1798 32.2408 55.0361C32.2927 55.0614 32.3436 55.0949 32.3909 55.1422C32.6792 55.4304 33.4469 56.1982 30.4992 59.146C28.3127 61.3325 26.0695 64.1081 28.1414 66.18C29.4025 67.4411 30.9523 66.5603 31.5943 65.9184L31.5792 65.9038L31.58 65.903ZM7.98693 72.5962C7.45573 71.9254 6.91074 71.1962 6.47208 70.53C6.179 70.0829 5.94803 69.6775 5.80966 69.3458C5.75646 69.2139 5.69968 69.0819 5.67999 68.9788C5.57616 68.4351 5.89993 67.7594 6.43829 66.64C7.4181 64.5963 8.90301 61.5073 7.66388 58.6984C7.37411 58.0423 6.96848 57.4516 6.45773 56.9408C4.62017 55.1033 1.83575 54.6994 0.807894 54.6111C0.640632 55.0582 0.529894 55.4973 0.418149 55.939C-0.372372 59.0722 0.236068 62.0468 1.34039 64.7164C3.135 69.0531 7.36898 73.3956 8.22045 74.1324C8.43017 74.3156 8.61662 74.4734 8.76342 74.5936L9.23554 74.1215C9.10894 73.9713 8.96214 73.7964 8.80025 73.6012C8.55319 73.3051 8.27136 72.9588 7.98667 72.5959L7.98693 72.5962Z" fill="white"/>
</svg>
